<mxfile host="Electron" modified="2024-06-14T12:22:26.833Z" agent="Mozilla/5.0 (Windows NT 10.0; Win64; x64) AppleWebKit/537.36 (KHTML, like Gecko) draw.io/24.5.3 Chrome/124.0.6367.207 Electron/30.0.6 Safari/537.36" etag="2p51T4R_Sm7_ag8tPhyN" version="24.5.3" type="device">
  <diagram name="Page-1" id="A9y1XosYIk25rJp1wl0K">
    <mxGraphModel dx="2074" dy="1196" grid="1" gridSize="10" guides="1" tooltips="1" connect="1" arrows="1" fold="1" page="1" pageScale="1" pageWidth="1169" pageHeight="827" math="0" shadow="0">
      <root>
        <mxCell id="0" />
        <mxCell id="1" parent="0" />
        <mxCell id="axK4Nsb0Ay1v5Iek2Gkq-1" value="AWS Account" style="points=[[0,0],[0.25,0],[0.5,0],[0.75,0],[1,0],[1,0.25],[1,0.5],[1,0.75],[1,1],[0.75,1],[0.5,1],[0.25,1],[0,1],[0,0.75],[0,0.5],[0,0.25]];outlineConnect=0;gradientColor=none;html=1;whiteSpace=wrap;fontSize=12;fontStyle=0;container=0;pointerEvents=0;collapsible=0;recursiveResize=0;shape=mxgraph.aws4.group;grIcon=mxgraph.aws4.group_account;strokeColor=#CD2264;fillColor=none;verticalAlign=top;align=left;spacingLeft=30;fontColor=#CD2264;dashed=0;" vertex="1" parent="1">
          <mxGeometry x="94" y="29" width="1070" height="770" as="geometry" />
        </mxCell>
        <mxCell id="axK4Nsb0Ay1v5Iek2Gkq-32" value="ec2" style="sketch=0;points=[[0,0,0],[0.25,0,0],[0.5,0,0],[0.75,0,0],[1,0,0],[0,1,0],[0.25,1,0],[0.5,1,0],[0.75,1,0],[1,1,0],[0,0.25,0],[0,0.5,0],[0,0.75,0],[1,0.25,0],[1,0.5,0],[1,0.75,0]];outlineConnect=0;fontColor=#232F3E;fillColor=#ED7100;strokeColor=#ffffff;dashed=0;verticalLabelPosition=bottom;verticalAlign=top;align=center;html=1;fontSize=10;fontStyle=0;aspect=fixed;shape=mxgraph.aws4.resourceIcon;resIcon=mxgraph.aws4.ec2;labelBackgroundColor=default;spacing=0;" vertex="1" parent="1">
          <mxGeometry x="656" y="465.5" width="38" height="38" as="geometry" />
        </mxCell>
        <mxCell id="axK4Nsb0Ay1v5Iek2Gkq-48" value="" style="image;aspect=fixed;html=1;points=[];align=center;fontSize=12;image=img/lib/azure2/networking/Network_Security_Groups.svg;" vertex="1" parent="1">
          <mxGeometry x="997" y="281" width="16" height="19.43" as="geometry" />
        </mxCell>
        <mxCell id="axK4Nsb0Ay1v5Iek2Gkq-49" value="" style="image;aspect=fixed;html=1;points=[];align=center;fontSize=12;image=img/lib/azure2/networking/Network_Security_Groups.svg;" vertex="1" parent="1">
          <mxGeometry x="1038" y="511" width="16" height="19.43" as="geometry" />
        </mxCell>
        <mxCell id="axK4Nsb0Ay1v5Iek2Gkq-14" value="app-vpc" style="sketch=0;outlineConnect=0;gradientColor=none;html=1;whiteSpace=wrap;fontSize=12;fontStyle=0;shape=mxgraph.aws4.group;grIcon=mxgraph.aws4.group_vpc;strokeColor=#879196;fillColor=none;verticalAlign=top;align=left;spacingLeft=30;fontColor=#879196;dashed=0;" vertex="1" parent="1">
          <mxGeometry x="144" y="90" width="1000" height="689" as="geometry" />
        </mxCell>
        <mxCell id="axK4Nsb0Ay1v5Iek2Gkq-2" value="us-east-1" style="sketch=0;outlineConnect=0;gradientColor=none;html=1;whiteSpace=wrap;fontSize=12;fontStyle=0;shape=mxgraph.aws4.group;grIcon=mxgraph.aws4.group_region;strokeColor=#879196;fillColor=none;verticalAlign=top;align=left;spacingLeft=30;fontColor=#879196;dashed=1;" vertex="1" parent="1">
          <mxGeometry x="114" y="60" width="1040" height="729" as="geometry" />
        </mxCell>
        <mxCell id="axK4Nsb0Ay1v5Iek2Gkq-3" value="us-east-1a" style="sketch=0;outlineConnect=0;gradientColor=none;html=1;whiteSpace=wrap;fontSize=12;fontStyle=0;shape=mxgraph.aws4.group;grIcon=mxgraph.aws4.group_availability_zone;strokeColor=#545B64;fillColor=none;verticalAlign=top;align=left;spacingLeft=30;fontColor=#545B64;dashed=1;" vertex="1" parent="1">
          <mxGeometry x="274" y="120" width="260" height="639" as="geometry" />
        </mxCell>
        <mxCell id="axK4Nsb0Ay1v5Iek2Gkq-4" value="us-east-1b" style="sketch=0;outlineConnect=0;gradientColor=none;html=1;whiteSpace=wrap;fontSize=12;fontStyle=0;shape=mxgraph.aws4.group;grIcon=mxgraph.aws4.group_availability_zone;strokeColor=#545B64;fillColor=none;verticalAlign=top;align=left;spacingLeft=30;fontColor=#545B64;dashed=1;" vertex="1" parent="1">
          <mxGeometry x="544" y="120" width="260" height="639" as="geometry" />
        </mxCell>
        <mxCell id="axK4Nsb0Ay1v5Iek2Gkq-5" value="us-east-1c" style="sketch=0;outlineConnect=0;gradientColor=none;html=1;whiteSpace=wrap;fontSize=12;fontStyle=0;shape=mxgraph.aws4.group;grIcon=mxgraph.aws4.group_availability_zone;strokeColor=#545B64;fillColor=none;verticalAlign=top;align=left;spacingLeft=30;fontColor=#545B64;dashed=1;" vertex="1" parent="1">
          <mxGeometry x="814" y="120" width="260" height="639" as="geometry" />
        </mxCell>
        <mxCell id="axK4Nsb0Ay1v5Iek2Gkq-9" value="public-1a (10.0.1.0/24)" style="points=[[0,0],[0.25,0],[0.5,0],[0.75,0],[1,0],[1,0.25],[1,0.5],[1,0.75],[1,1],[0.75,1],[0.5,1],[0.25,1],[0,1],[0,0.75],[0,0.5],[0,0.25]];outlineConnect=0;gradientColor=none;html=1;whiteSpace=wrap;fontSize=12;fontStyle=0;container=1;pointerEvents=0;collapsible=0;recursiveResize=0;shape=mxgraph.aws4.group;grIcon=mxgraph.aws4.group_security_group;grStroke=0;strokeColor=#7AA116;fillColor=#F2F6E8;verticalAlign=top;align=left;spacingLeft=30;fontColor=#248814;dashed=0;" vertex="1" parent="1">
          <mxGeometry x="284" y="183" width="240" height="139" as="geometry" />
        </mxCell>
        <mxCell id="axK4Nsb0Ay1v5Iek2Gkq-10" value="public-1b (10.0.2.0/24)" style="points=[[0,0],[0.25,0],[0.5,0],[0.75,0],[1,0],[1,0.25],[1,0.5],[1,0.75],[1,1],[0.75,1],[0.5,1],[0.25,1],[0,1],[0,0.75],[0,0.5],[0,0.25]];outlineConnect=0;gradientColor=none;html=1;whiteSpace=wrap;fontSize=12;fontStyle=0;container=1;pointerEvents=0;collapsible=0;recursiveResize=0;shape=mxgraph.aws4.group;grIcon=mxgraph.aws4.group_security_group;grStroke=0;strokeColor=#7AA116;fillColor=#F2F6E8;verticalAlign=top;align=left;spacingLeft=30;fontColor=#248814;dashed=0;" vertex="1" parent="1">
          <mxGeometry x="554" y="183" width="240" height="139" as="geometry" />
        </mxCell>
        <mxCell id="axK4Nsb0Ay1v5Iek2Gkq-11" value="public-1c (10.0.3.0/24)" style="points=[[0,0],[0.25,0],[0.5,0],[0.75,0],[1,0],[1,0.25],[1,0.5],[1,0.75],[1,1],[0.75,1],[0.5,1],[0.25,1],[0,1],[0,0.75],[0,0.5],[0,0.25]];outlineConnect=0;gradientColor=none;html=1;whiteSpace=wrap;fontSize=12;fontStyle=0;container=1;pointerEvents=0;collapsible=0;recursiveResize=0;shape=mxgraph.aws4.group;grIcon=mxgraph.aws4.group_security_group;grStroke=0;strokeColor=#7AA116;fillColor=#F2F6E8;verticalAlign=top;align=left;spacingLeft=30;fontColor=#248814;dashed=0;" vertex="1" parent="1">
          <mxGeometry x="824" y="183" width="240" height="139" as="geometry" />
        </mxCell>
        <mxCell id="axK4Nsb0Ay1v5Iek2Gkq-18" value="" style="rounded=0;whiteSpace=wrap;html=1;fillColor=none;strokeColor=#3399FF;dashed=1;strokeWidth=2;" vertex="1" parent="1">
          <mxGeometry x="254" y="362" width="880" height="290" as="geometry" />
        </mxCell>
        <mxCell id="axK4Nsb0Ay1v5Iek2Gkq-8" value="private-1a (10.0.10.0/24)" style="points=[[0,0],[0.25,0],[0.5,0],[0.75,0],[1,0],[1,0.25],[1,0.5],[1,0.75],[1,1],[0.75,1],[0.5,1],[0.25,1],[0,1],[0,0.75],[0,0.5],[0,0.25]];outlineConnect=0;gradientColor=none;html=1;whiteSpace=wrap;fontSize=12;fontStyle=0;container=1;pointerEvents=0;collapsible=0;recursiveResize=0;shape=mxgraph.aws4.group;grIcon=mxgraph.aws4.group_security_group;grStroke=0;strokeColor=#00A4A6;fillColor=#E6F6F7;verticalAlign=top;align=left;spacingLeft=30;fontColor=#147EBA;dashed=0;" vertex="1" parent="1">
          <mxGeometry x="284" y="373" width="240" height="249" as="geometry" />
        </mxCell>
        <mxCell id="axK4Nsb0Ay1v5Iek2Gkq-33" value="rds" style="outlineConnect=0;dashed=0;verticalLabelPosition=bottom;verticalAlign=top;align=center;html=1;shape=mxgraph.aws3.rds_db_instance;fillColor=#2E73B8;gradientColor=none;labelBackgroundColor=default;" vertex="1" parent="axK4Nsb0Ay1v5Iek2Gkq-8">
          <mxGeometry x="100.37" y="170" width="35.25" height="47" as="geometry" />
        </mxCell>
        <mxCell id="axK4Nsb0Ay1v5Iek2Gkq-12" value="private-1b (10.0.20.0/24)" style="points=[[0,0],[0.25,0],[0.5,0],[0.75,0],[1,0],[1,0.25],[1,0.5],[1,0.75],[1,1],[0.75,1],[0.5,1],[0.25,1],[0,1],[0,0.75],[0,0.5],[0,0.25]];outlineConnect=0;gradientColor=none;html=1;whiteSpace=wrap;fontSize=12;fontStyle=0;container=1;pointerEvents=0;collapsible=0;recursiveResize=0;shape=mxgraph.aws4.group;grIcon=mxgraph.aws4.group_security_group;grStroke=0;strokeColor=#00A4A6;fillColor=#E6F6F7;verticalAlign=top;align=left;spacingLeft=30;fontColor=#147EBA;dashed=0;" vertex="1" parent="1">
          <mxGeometry x="554" y="373" width="240" height="249" as="geometry" />
        </mxCell>
        <mxCell id="axK4Nsb0Ay1v5Iek2Gkq-13" value="private-1c (10.0.30.0/24)" style="points=[[0,0],[0.25,0],[0.5,0],[0.75,0],[1,0],[1,0.25],[1,0.5],[1,0.75],[1,1],[0.75,1],[0.5,1],[0.25,1],[0,1],[0,0.75],[0,0.5],[0,0.25]];outlineConnect=0;gradientColor=none;html=1;whiteSpace=wrap;fontSize=12;fontStyle=0;container=1;pointerEvents=0;collapsible=0;recursiveResize=0;shape=mxgraph.aws4.group;grIcon=mxgraph.aws4.group_security_group;grStroke=0;strokeColor=#00A4A6;fillColor=#E6F6F7;verticalAlign=top;align=left;spacingLeft=30;fontColor=#147EBA;dashed=0;" vertex="1" parent="1">
          <mxGeometry x="824" y="373" width="240" height="249" as="geometry" />
        </mxCell>
        <mxCell id="axK4Nsb0Ay1v5Iek2Gkq-37" style="edgeStyle=orthogonalEdgeStyle;rounded=0;orthogonalLoop=1;jettySize=auto;html=1;entryX=0;entryY=0.25;entryDx=0;entryDy=0;strokeWidth=2;curved=0;" edge="1" parent="1" source="axK4Nsb0Ay1v5Iek2Gkq-15" target="axK4Nsb0Ay1v5Iek2Gkq-26">
          <mxGeometry relative="1" as="geometry" />
        </mxCell>
        <mxCell id="axK4Nsb0Ay1v5Iek2Gkq-15" value="internet&lt;div&gt;gateway&lt;/div&gt;" style="outlineConnect=0;dashed=0;verticalLabelPosition=bottom;verticalAlign=top;align=center;html=1;shape=mxgraph.aws3.internet_gateway;fillColor=#F58534;gradientColor=none;spacing=0;labelBackgroundColor=default;" vertex="1" parent="1">
          <mxGeometry x="124" y="182" width="40" height="42" as="geometry" />
        </mxCell>
        <mxCell id="axK4Nsb0Ay1v5Iek2Gkq-17" value="" style="rounded=0;whiteSpace=wrap;html=1;fillColor=none;strokeColor=#82b366;dashed=1;strokeWidth=2;" vertex="1" parent="1">
          <mxGeometry x="254" y="173" width="880" height="159" as="geometry" />
        </mxCell>
        <mxCell id="axK4Nsb0Ay1v5Iek2Gkq-20" value="route&lt;div style=&quot;font-size: 11px;&quot;&gt;table&lt;/div&gt;" style="sketch=0;outlineConnect=0;fontColor=#232F3E;gradientColor=none;strokeColor=#232F3E;fillColor=#ffffff;dashed=0;verticalLabelPosition=bottom;verticalAlign=top;align=center;html=1;fontSize=11;fontStyle=0;aspect=fixed;shape=mxgraph.aws4.resourceIcon;resIcon=mxgraph.aws4.route_table;spacing=0;labelBackgroundColor=default;" vertex="1" parent="1">
          <mxGeometry x="1090" y="176" width="40" height="40" as="geometry" />
        </mxCell>
        <mxCell id="axK4Nsb0Ay1v5Iek2Gkq-21" value="route&lt;div style=&quot;font-size: 11px;&quot;&gt;table&lt;/div&gt;" style="sketch=0;outlineConnect=0;fontColor=#232F3E;gradientColor=none;strokeColor=#232F3E;fillColor=#ffffff;dashed=0;verticalLabelPosition=bottom;verticalAlign=top;align=center;html=1;fontSize=11;fontStyle=0;aspect=fixed;shape=mxgraph.aws4.resourceIcon;resIcon=mxgraph.aws4.route_table;spacing=0;labelBackgroundColor=default;" vertex="1" parent="1">
          <mxGeometry x="1090" y="362" width="40" height="40" as="geometry" />
        </mxCell>
        <mxCell id="axK4Nsb0Ay1v5Iek2Gkq-28" value="Auto Scaling group" style="points=[[0,0],[0.25,0],[0.5,0],[0.75,0],[1,0],[1,0.25],[1,0.5],[1,0.75],[1,1],[0.75,1],[0.5,1],[0.25,1],[0,1],[0,0.75],[0,0.5],[0,0.25]];outlineConnect=0;gradientColor=none;html=1;whiteSpace=wrap;fontSize=12;fontStyle=0;container=1;pointerEvents=0;collapsible=0;recursiveResize=0;shape=mxgraph.aws4.groupCenter;grIcon=mxgraph.aws4.group_auto_scaling_group;grStroke=1;strokeColor=#D86613;fillColor=none;verticalAlign=top;align=center;fontColor=#D86613;dashed=1;spacingTop=25;" vertex="1" parent="1">
          <mxGeometry x="300" y="410" width="748" height="112" as="geometry" />
        </mxCell>
        <mxCell id="axK4Nsb0Ay1v5Iek2Gkq-27" value="ec2" style="sketch=0;points=[[0,0,0],[0.25,0,0],[0.5,0,0],[0.75,0,0],[1,0,0],[0,1,0],[0.25,1,0],[0.5,1,0],[0.75,1,0],[1,1,0],[0,0.25,0],[0,0.5,0],[0,0.75,0],[1,0.25,0],[1,0.5,0],[1,0.75,0]];outlineConnect=0;fontColor=#232F3E;fillColor=#ED7100;strokeColor=#ffffff;dashed=0;verticalLabelPosition=bottom;verticalAlign=top;align=center;html=1;fontSize=10;fontStyle=0;aspect=fixed;shape=mxgraph.aws4.resourceIcon;resIcon=mxgraph.aws4.ec2;labelBackgroundColor=default;spacing=0;" vertex="1" parent="axK4Nsb0Ay1v5Iek2Gkq-28">
          <mxGeometry x="82.99000000000001" y="55.5" width="38" height="38" as="geometry" />
        </mxCell>
        <mxCell id="axK4Nsb0Ay1v5Iek2Gkq-30" value="ec2" style="sketch=0;points=[[0,0,0],[0.25,0,0],[0.5,0,0],[0.75,0,0],[1,0,0],[0,1,0],[0.25,1,0],[0.5,1,0],[0.75,1,0],[1,1,0],[0,0.25,0],[0,0.5,0],[0,0.75,0],[1,0.25,0],[1,0.5,0],[1,0.75,0]];outlineConnect=0;fontColor=#232F3E;fillColor=#ED7100;strokeColor=#ffffff;dashed=0;verticalLabelPosition=bottom;verticalAlign=top;align=center;html=1;fontSize=10;fontStyle=0;aspect=fixed;shape=mxgraph.aws4.resourceIcon;resIcon=mxgraph.aws4.ec2;labelBackgroundColor=default;spacing=0;" vertex="1" parent="axK4Nsb0Ay1v5Iek2Gkq-28">
          <mxGeometry x="628" y="55.5" width="38" height="38" as="geometry" />
        </mxCell>
        <mxCell id="axK4Nsb0Ay1v5Iek2Gkq-29" value="bastion&lt;div&gt;host&lt;/div&gt;" style="sketch=0;points=[[0,0,0],[0.25,0,0],[0.5,0,0],[0.75,0,0],[1,0,0],[0,1,0],[0.25,1,0],[0.5,1,0],[0.75,1,0],[1,1,0],[0,0.25,0],[0,0.5,0],[0,0.75,0],[1,0.25,0],[1,0.5,0],[1,0.75,0]];outlineConnect=0;fontColor=#232F3E;fillColor=#ED7100;strokeColor=#ffffff;dashed=0;verticalLabelPosition=bottom;verticalAlign=top;align=center;html=1;fontSize=10;fontStyle=0;aspect=fixed;shape=mxgraph.aws4.resourceIcon;resIcon=mxgraph.aws4.ec2;labelBackgroundColor=default;spacing=0;" vertex="1" parent="1">
          <mxGeometry x="1016" y="247.5" width="38" height="38" as="geometry" />
        </mxCell>
        <mxCell id="axK4Nsb0Ay1v5Iek2Gkq-36" value="" style="group" vertex="1" connectable="0" parent="1">
          <mxGeometry x="306.99" y="242" width="700" height="49" as="geometry" />
        </mxCell>
        <mxCell id="axK4Nsb0Ay1v5Iek2Gkq-26" value="application load balancer" style="rounded=1;whiteSpace=wrap;html=1;fillColor=#ffe6cc;strokeColor=#d79b00;" vertex="1" parent="axK4Nsb0Ay1v5Iek2Gkq-36">
          <mxGeometry width="700" height="49" as="geometry" />
        </mxCell>
        <mxCell id="axK4Nsb0Ay1v5Iek2Gkq-23" value="" style="outlineConnect=0;dashed=0;verticalLabelPosition=bottom;verticalAlign=top;align=center;html=1;shape=mxgraph.aws3.application_load_balancer;fillColor=#F58534;gradientColor=none;" vertex="1" parent="axK4Nsb0Ay1v5Iek2Gkq-36">
          <mxGeometry x="223.01" y="8" width="31.63" height="33" as="geometry" />
        </mxCell>
        <mxCell id="axK4Nsb0Ay1v5Iek2Gkq-42" style="edgeStyle=orthogonalEdgeStyle;rounded=0;orthogonalLoop=1;jettySize=auto;html=1;exitX=0;exitY=0.75;exitDx=0;exitDy=0;entryX=0;entryY=0.25;entryDx=0;entryDy=0;strokeWidth=2;" edge="1" parent="1" source="axK4Nsb0Ay1v5Iek2Gkq-26" target="axK4Nsb0Ay1v5Iek2Gkq-28">
          <mxGeometry relative="1" as="geometry">
            <Array as="points">
              <mxPoint x="234" y="279" />
              <mxPoint x="234" y="438" />
            </Array>
          </mxGeometry>
        </mxCell>
        <mxCell id="axK4Nsb0Ay1v5Iek2Gkq-43" style="edgeStyle=orthogonalEdgeStyle;rounded=0;orthogonalLoop=1;jettySize=auto;html=1;exitX=0;exitY=0.75;exitDx=0;exitDy=0;entryX=0;entryY=0.5;entryDx=0;entryDy=0;entryPerimeter=0;strokeWidth=2;" edge="1" parent="1" source="axK4Nsb0Ay1v5Iek2Gkq-28" target="axK4Nsb0Ay1v5Iek2Gkq-33">
          <mxGeometry relative="1" as="geometry">
            <Array as="points">
              <mxPoint x="234" y="494" />
              <mxPoint x="234" y="567" />
            </Array>
          </mxGeometry>
        </mxCell>
        <mxCell id="axK4Nsb0Ay1v5Iek2Gkq-47" value="" style="image;aspect=fixed;html=1;points=[];align=center;fontSize=12;image=img/lib/azure2/networking/Network_Security_Groups.svg;" vertex="1" parent="1">
          <mxGeometry x="1048" y="273" width="16" height="19.43" as="geometry" />
        </mxCell>
        <mxCell id="axK4Nsb0Ay1v5Iek2Gkq-50" value="" style="image;aspect=fixed;html=1;points=[];align=center;fontSize=12;image=img/lib/azure2/networking/Network_Security_Groups.svg;" vertex="1" parent="1">
          <mxGeometry x="414" y="573" width="16" height="19.43" as="geometry" />
        </mxCell>
        <mxCell id="axK4Nsb0Ay1v5Iek2Gkq-51" value="" style="sketch=0;outlineConnect=0;fontColor=#232F3E;gradientColor=none;fillColor=#232F3D;strokeColor=none;dashed=0;verticalLabelPosition=bottom;verticalAlign=top;align=center;html=1;fontSize=12;fontStyle=0;aspect=fixed;pointerEvents=1;shape=mxgraph.aws4.user;" vertex="1" parent="1">
          <mxGeometry x="5" y="373" width="52" height="52" as="geometry" />
        </mxCell>
        <mxCell id="axK4Nsb0Ay1v5Iek2Gkq-52" style="edgeStyle=orthogonalEdgeStyle;rounded=0;orthogonalLoop=1;jettySize=auto;html=1;entryX=0;entryY=0.5;entryDx=0;entryDy=0;entryPerimeter=0;strokeWidth=2;" edge="1" parent="1" source="axK4Nsb0Ay1v5Iek2Gkq-51" target="axK4Nsb0Ay1v5Iek2Gkq-15">
          <mxGeometry relative="1" as="geometry">
            <Array as="points">
              <mxPoint x="80" y="399" />
              <mxPoint x="80" y="203" />
            </Array>
          </mxGeometry>
        </mxCell>
      </root>
    </mxGraphModel>
  </diagram>
</mxfile>
